<svg width="1646" height="274" viewBox="0 0 1646 274" fill="none" xmlns="http://www.w3.org/2000/svg">
<path d="M363.435 129.7C362.435 195.3 318.035 242 267.035 255.6C255.335 258.7 243.435 260.4 231.435 260.2C201.435 259.5 174.335 250.1 150.935 231.2C128.235 212.8 113.435 189.3 106.235 161C105.935 159.7 105.835 158.2 105.735 156.9C105.735 156.7 105.935 156.4 106.135 156.2C106.235 156.1 106.635 155.9 106.735 156C114.535 159.9 122.935 162.1 131.435 163.5C132.935 163.7 134.035 164.6 134.635 165.9C135.435 167.7 136.235 169.5 137.035 171.3C151.335 202.9 175.435 222.9 208.935 231.6C268.535 244.6 318.635 208.3 333.035 160.2C337.535 145 338.335 129.5 336.135 113.8C331.035 78.1001 303.735 41.9001 261.735 30.1001C248.135 26.3001 234.335 24.8001 220.235 26.9001C212.735 28.0001 205.335 29.4001 198.235 32.0001C194.535 33.4001 190.735 33.9001 186.735 33.9001C174.135 33.8001 161.535 33.8001 148.935 33.8001C148.535 33.8001 147.835 33.4001 147.735 33.0001C147.635 32.6001 147.835 32.0001 148.035 31.5001C148.135 31.3001 148.435 31.1001 148.635 30.9001C165.635 16.6001 185.035 6.90009 206.835 2.70009C275.435 -10.4999 336.335 29.2001 356.535 88.8001C359.935 98.9001 362.235 109.2 362.735 120C363.035 123.4 363.335 127 363.435 129.7Z" fill="#EEAF20"/>
<path d="M315.735 115.5C312.135 94.5 302.235 77.1 285.735 63.7C271.135 51.8 254.535 45.6 235.535 45.7C198.035 45.9 160.535 45.8 123.135 45.8C85.6347 45.8 48.1347 45.8 10.7347 45.8C8.23468 45.8 5.73468 45.8 3.23468 45.9C1.13468 45.9 0.53468 47.1 1.03468 49.3C2.23468 54.4 5.13468 58.5 9.13468 61.7C12.4347 64.4 16.1347 66.3 20.0347 67.9C26.3347 70.4 32.8347 71.9 39.5347 72.5C47.3347 73.2 55.1347 73.7 63.0347 73.7C102.235 73.6 141.335 73.7 180.535 73.7C183.035 73.7 185.535 73.7 188.135 73.8C188.935 73.8 189.835 74 190.535 74.2C191.035 74.4 191.535 74.9 191.635 75.4C192.235 77.9 192.335 80.4 191.635 82.8C191.435 83.4 190.435 84.1 189.835 84.2C187.035 84.4 184.235 84.4 181.435 84.4C139.435 84.4 97.5347 84.4 55.5347 84.4C53.0347 84.4 50.5347 84.5 48.0347 84.5C46.9347 84.5 46.1347 85.7 46.3347 86.8C47.2347 92.3 50.2347 96.6 54.4347 100.1C57.7347 102.8 61.3347 104.8 65.3347 106.3C72.4347 109 79.7347 110.7 87.3347 111.2C93.7347 111.6 100.235 111.8 106.635 111.8C127.035 111.9 147.435 111.8 167.935 111.8C174.135 111.8 180.235 111.8 186.435 111.8C187.835 111.8 189.235 112 190.535 112.3C190.935 112.4 191.535 112.9 191.635 113.4C192.435 115.8 192.435 118.3 191.635 120.7C191.335 121.6 190.435 122 189.735 122.1C187.235 122.3 184.735 122.3 182.235 122.3C157.635 122.3 133.035 122.3 108.435 122.3C105.935 122.3 103.435 122.4 100.935 122.5C100.335 122.5 99.3347 123.6 99.4347 124.2C99.6347 125.6 99.5347 127 100.035 128.3C102.035 133.1 105.335 136.8 109.635 139.7C114.135 142.7 118.935 144.8 124.135 146.1C131.135 148 138.335 149.2 145.635 149.5C149.235 149.6 152.935 149.7 156.535 149.7C166.635 149.7 176.635 149.7 186.735 149.7C188.135 149.7 189.535 149.9 190.835 150.2C191.235 150.3 191.835 150.9 191.935 151.3C192.135 153.2 192.435 155.2 192.435 157.1C192.435 173.6 192.435 190.1 192.435 206.6C192.435 208.8 192.535 211.1 192.735 213.3C192.835 214 193.335 214.9 194.335 215C195.135 215.1 195.935 215.3 196.835 215.3C210.835 215.3 224.835 215.3 238.835 215.2C241.935 215.2 245.035 215.1 248.035 214.5C271.235 210.4 289.735 198.8 302.835 179.2C315.335 160 319.735 138.6 315.735 115.5ZM275.535 165.2C267.835 174.1 258.135 180 246.535 182.5C244.935 182.9 243.235 183.2 241.535 183.2C235.135 183.3 228.635 183.2 222.235 183.2C220.835 183.2 219.735 181.9 219.735 180.4C219.735 178.2 219.635 175.9 219.735 173.7C219.835 158.9 220.035 144.1 220.135 129.3C220.335 114.2 220.435 99.1 220.635 84C220.635 81.8 220.735 79.5 220.935 77.3C221.035 76.6 221.535 75.8 222.535 75.6C222.835 75.5 223.035 75.3 223.335 75.3C230.335 75.2 237.335 74.9 244.235 75.9C252.435 77 259.835 80.3 266.435 85.2C278.335 94.2 285.835 106.1 288.235 120.8C290.935 137.3 286.635 152.3 275.535 165.2Z" fill="#EEAF20"/>
<path d="M417.035 189C417.035 151.4 417.035 114.1 417.035 76.5001C417.735 76.4001 418.535 76.2001 419.235 76.2001C427.835 76.2001 436.535 76.1001 445.135 76.2001C475.035 76.6001 494.835 98.9001 498.635 122.5C502.235 145 495.335 163.9 477.435 178.2C468.435 185.4 457.935 188.9 446.435 189C437.335 189.1 428.135 189.1 419.035 189.1C418.535 189.2 417.935 189.1 417.035 189ZM433.635 173.6C434.235 173.7 434.635 173.9 435.135 173.9C438.835 173.9 442.435 174 446.135 173.9C454.035 173.7 460.935 171 467.135 166.1C481.235 155.1 486.835 135.5 480.535 118.3C475.735 105.4 467.035 96.3001 453.535 92.5001C447.235 90.8001 440.735 91.6001 434.335 91.6001C434.135 91.6001 434.035 91.8001 433.735 92.0001C433.635 119.1 433.635 146.3 433.635 173.6Z" fill="black"/>
<path d="M670.035 119C670.035 115.2 670.035 112 670.035 108.4C675.435 108 680.635 108.1 686.035 108.3C686.035 135.1 686.035 161.7 686.035 188.4C680.735 188.4 675.635 188.4 670.235 188.4C670.235 185.5 670.235 182.7 670.235 179.3C669.335 179.9 668.835 180.2 668.335 180.6C656.135 190.6 642.335 193.2 627.535 187.9C612.835 182.7 603.735 171.9 600.835 156.6C596.535 133.9 610.935 112.6 633.635 108.1C645.735 105.7 656.635 108.6 666.635 115.7C667.635 116.5 668.535 117.5 670.035 119ZM645.535 175.4C649.435 175.4 656.235 172.7 661.835 167.5C668.735 161.1 671.835 153.2 669.635 143.9C666.435 130.4 651.435 120.7 637.635 123C623.635 125.4 614.635 137.5 615.435 150.7C616.235 165 627.535 175.4 645.535 175.4Z" fill="black"/>
<path d="M591.335 153.3C569.235 153.3 547.335 153.3 525.435 153.3C524.635 160.4 532.635 170.4 541.335 173.7C553.235 178.2 565.035 173.9 573.335 162.2C578.835 162.2 584.335 162.2 590.035 162.2C589.935 162.6 590.035 163 589.835 163.3C583.535 177.4 573.235 186.9 557.635 189.8C536.535 193.7 515.835 180.6 510.235 159.8C503.935 136.3 518.435 112.6 542.235 107.7C562.635 103.4 583.435 116 589.635 136.5C591.335 141.8 591.935 147.3 591.335 153.3ZM575.035 141C571.735 129.9 560.935 120.7 548.435 121.9C537.235 123 526.235 132.4 525.935 141C542.235 141 558.535 141 575.035 141Z" fill="black"/>
<path d="M821.235 153.3C799.235 153.3 777.335 153.3 755.435 153.3C755.135 161.1 763.035 170.8 772.035 173.9C777.935 175.9 783.935 175.7 789.835 173.7C795.435 171.7 798.135 169.5 803.435 162.2C808.935 162.2 814.435 162.2 820.435 162.2C816.835 171 811.535 178.1 803.835 183.3C794.235 189.8 783.535 191.8 772.235 189.6C750.435 185.5 735.535 163.3 739.535 141.3C743.435 119.6 764.035 103.2 787.335 107.4C811.635 111.8 823.835 134.7 821.235 153.3ZM755.735 140.9C761.535 141.6 803.035 141.3 804.935 140.6C802.135 131.3 793.135 121.6 779.835 121.8C768.535 122.1 757.835 130.7 755.735 140.9Z" fill="black"/>
<path d="M709.435 75.8C714.735 75.8 719.835 75.8 725.135 75.8C725.135 113.6 725.135 151.2 725.135 189C719.935 189 714.835 189 709.435 189C709.435 151.3 709.435 113.6 709.435 75.8Z" fill="black"/>
<path d="M835.035 108.4C840.535 108.4 845.935 108.4 851.635 108.4C851.635 110.6 851.635 112.7 851.635 115.2C854.535 113.4 856.935 111.5 859.535 110.4C862.235 109.3 865.235 108.8 868.135 108.4C871.035 108 874.035 108 877.235 107.8C877.235 112.9 877.235 117.6 877.235 122.5C874.835 122.8 872.435 123 870.135 123.3C866.735 123.8 863.435 124.9 860.435 126.8C854.735 130.4 851.735 135.7 851.735 142.4C851.635 156.7 851.735 171 851.735 185.3C851.735 186.4 851.735 187.6 851.735 188.9C846.035 188.9 840.635 188.9 835.235 188.9C834.735 186.9 834.535 112.9 835.035 108.4Z" fill="black"/>
<path d="M1305.33 273.1C1304.23 272.6 1303.13 272.1 1302.03 271.7C1291.53 268 1283.73 257.7 1284.43 245.2C1285.13 232.4 1293.63 222.4 1305.63 219.8C1315.63 217.6 1326.53 221.2 1333.03 228.9C1331.03 230.5 1329.03 232.1 1326.93 233.7C1325.53 232.7 1324.23 231.8 1322.93 230.9C1314.63 225.5 1304.43 226.4 1298.13 233.1C1288.53 243.2 1292.83 260.4 1305.93 264.6C1314.23 267.2 1323.43 263.3 1326.93 255.5C1327.23 254.8 1327.33 253.9 1327.73 252.6C1323.43 252.6 1319.43 252.6 1315.23 252.6C1315.23 250 1315.23 247.9 1315.23 245.5C1322.43 245.5 1329.43 245.5 1336.73 245.5C1337.43 247.9 1337.03 250.3 1336.53 252.6C1334.23 262.4 1328.43 269.1 1318.63 272.2C1318.03 272.4 1317.53 272.7 1317.03 273C1313.13 273.1 1309.23 273.1 1305.33 273.1Z" fill="black"/>
<path d="M1198.73 246.2C1207.03 237.3 1215.03 228.6 1223.03 220C1223.33 220.1 1223.43 220.1 1223.53 220.2C1223.63 220.3 1223.73 220.4 1223.73 220.4C1223.83 236.8 1223.83 253.2 1223.93 269.5C1223.93 270.2 1223.73 270.9 1223.63 271.8C1221.13 271.8 1218.73 271.8 1215.83 271.8C1215.63 266.8 1215.83 261.7 1215.73 256.6C1215.73 251.5 1215.73 246.3 1215.73 240.3C1213.53 242.7 1211.73 244.5 1210.03 246.4C1208.23 248.4 1206.33 250.3 1204.53 252.3C1202.73 254.2 1200.83 256.2 1198.73 258.4C1192.63 252.7 1186.73 247.2 1180.53 241.3C1180.53 251.5 1180.53 261.5 1180.53 271.7C1177.53 271.7 1174.93 271.7 1172.03 271.7C1172.03 254.4 1172.03 237.1 1172.03 219C1181.03 228.4 1189.73 237.2 1198.73 246.2Z" fill="black"/>
<path d="M1495.23 220.6C1498.23 220.6 1500.73 220.6 1503.43 220.6C1503.43 237.8 1503.43 254.8 1503.43 272.6C1491.83 261.3 1480.73 250.5 1469.43 239.6C1468.53 242.2 1469.13 244.8 1469.03 247.4C1468.93 250.1 1469.03 252.8 1469.03 255.5C1469.03 258.1 1469.03 260.6 1469.03 263.2C1469.03 265.9 1469.03 268.5 1469.03 271.5C1466.33 271.5 1463.83 271.5 1461.33 271.5C1460.63 268.9 1460.33 225.4 1461.13 219.8C1472.63 230.8 1483.53 241.8 1495.23 253.5C1495.23 242 1495.23 231.3 1495.23 220.6Z" fill="black"/>
<path d="M1408.33 264.3C1416.93 264.3 1424.83 264.3 1432.83 264.3C1433.73 267 1433.43 269.3 1433.13 272C1420.23 272 1407.53 272 1394.13 272C1395.63 268.9 1397.53 266.1 1399.33 263.2C1401.13 260.3 1402.83 257.3 1404.63 254.4C1406.33 251.6 1408.03 248.8 1409.83 245.9C1411.63 243 1413.43 240.1 1415.13 237.1C1416.93 234.2 1418.63 231.3 1420.73 227.8C1415.93 227.8 1411.73 227.8 1407.53 227.8C1403.23 227.8 1399.03 227.8 1394.43 227.8C1394.43 225.4 1394.43 223.2 1394.43 220.4C1407.43 220.3 1420.43 220.4 1433.43 220.4C1434.03 222.1 1432.83 223.1 1432.13 224.2C1424.93 236.3 1417.63 248.3 1410.43 260.4C1409.83 261.4 1409.23 262.6 1408.33 264.3Z" fill="black"/>
<path d="M1543.33 249.1C1543.33 251.8 1543.33 253.8 1543.33 256.2C1536.73 256.2 1530.23 256.2 1523.63 256.2C1523.63 259.2 1523.63 261.9 1523.63 265C1531.33 265 1538.93 265 1546.73 265C1546.73 267.5 1546.73 269.5 1546.73 272.1C1536.43 272.2 1526.23 272.2 1516.13 272.2C1515.33 269.3 1515.03 227.7 1515.73 221.1C1518.23 220.3 1539.93 220 1546.63 220.7C1546.63 222.8 1546.63 224.9 1546.63 227.5C1539.03 227.5 1531.43 227.5 1523.63 227.5C1523.63 234.9 1523.63 241.8 1523.63 249.2C1530.03 249.1 1536.43 249.1 1543.33 249.1Z" fill="black"/>
<path d="M1277.63 272C1274.83 272 1272.73 272.1 1270.53 271.9C1269.83 271.8 1269.13 271.1 1268.63 270.5C1268.23 270.1 1268.13 269.4 1267.93 268.8C1265.33 262.8 1266.93 263.8 1260.43 263.7C1254.93 263.6 1249.43 263.7 1243.83 263.7C1242.63 266.5 1241.53 269.1 1240.43 271.7C1237.83 271.7 1235.33 271.7 1232.13 271.7C1239.53 254 1246.93 236.9 1254.73 218.9C1262.53 237.1 1269.93 254.2 1277.63 272ZM1246.63 256.6C1252.23 256.6 1257.33 256.6 1262.83 256.6C1260.13 249.7 1257.63 243.2 1254.83 235.8C1251.93 243.1 1249.33 249.7 1246.63 256.6Z" fill="black"/>
<path d="M1366.53 219C1374.23 236.9 1381.73 254.1 1389.33 271.8C1386.43 271.8 1383.93 271.8 1381.03 271.8C1379.93 269.4 1378.83 266.8 1377.53 264C1370.23 264 1363.03 264 1355.53 264C1354.43 266.6 1353.33 269.2 1352.23 271.8C1349.43 271.8 1346.93 271.8 1343.83 271.8C1351.43 254.2 1358.83 237 1366.53 219ZM1358.43 256.6C1364.13 256.6 1369.13 256.6 1374.63 256.6C1371.93 249.7 1369.43 243.2 1366.53 235.8C1363.73 243.2 1361.13 249.8 1358.43 256.6Z" fill="black"/>
<path d="M1449.73 271.9C1447.43 271.9 1445.03 271.9 1442.33 271.9C1442.33 254.8 1442.33 237.9 1442.33 220.6C1444.73 220.6 1447.23 220.6 1449.63 220.6C1450.43 223.6 1450.53 268.4 1449.73 271.9Z" fill="black"/>
<path d="M1645.93 192.4C1645.63 194 1645.33 195.6 1644.93 197.1C1641.63 209.1 1634.23 217.8 1623.23 223.4C1614.03 228.1 1604.33 229.1 1594.33 226.8C1586.63 225 1580.13 221 1575.03 214.9C1571.43 210.7 1568.83 205.9 1566.83 200.3C1571.33 198.4 1575.73 196.5 1580.33 194.6C1580.93 195.8 1581.33 196.7 1581.73 197.7C1589.23 212.5 1608.23 217.5 1621.33 205.8C1625.93 201.7 1628.73 196.5 1629.23 190.2C1629.53 186.5 1629.33 182.8 1629.33 178.7C1618.33 187.7 1606.13 190.7 1592.53 187.2C1583.13 184.8 1575.73 179.3 1570.23 171.4C1559.13 155.3 1561.43 133.6 1575.63 120.1C1587.43 108.9 1609.03 102.6 1629.73 120.3C1629.73 116.5 1629.73 113.1 1629.73 109.3C1635.33 109.2 1640.63 108.9 1645.83 109.4C1645.93 137 1645.93 164.7 1645.93 192.4ZM1578.93 146.5C1578.83 160.1 1585.43 169 1596.33 171.9C1603.53 173.8 1610.43 173 1617.03 169.5C1622.33 166.7 1626.13 162.5 1628.13 156.8C1631.83 146.4 1627.93 134.8 1618.63 128.7C1609.93 123.1 1600.73 122.4 1591.53 127.2C1582.93 131.7 1579.23 139.3 1578.93 146.5Z" fill="black"/>
<path d="M1036.53 119.7C1024.33 132.7 1012.33 145.5 1000.23 158.4C999.235 157.5 998.435 156.8 997.635 156.1C989.535 148.7 981.435 141.3 973.535 133.8C970.035 130.4 966.835 126.6 963.535 123C962.835 122.2 962.135 121.3 960.935 120C960.935 142.7 960.935 164.6 960.935 186.6C959.035 187.2 947.335 187.4 943.435 186.8C943.435 150 943.435 113.1 943.435 75.7001C944.235 76.4001 944.835 76.8001 945.435 77.3001C956.335 88.4001 967.335 99.5001 978.235 110.6C985.035 117.5 991.835 124.4 998.735 131.3C999.135 131.7 999.535 132.1 1000.23 132.6C1017.83 113.6 1035.43 94.7001 1053.03 75.6001C1053.63 77.9001 1053.83 182.6 1053.23 186.8C1047.63 186.8 1042.03 186.8 1036.43 186.8C1036.53 164.5 1036.53 142.2 1036.53 119.7Z" fill="black"/>
<path d="M1137.43 119.4C1137.43 115.6 1137.43 112.5 1137.43 109.3C1142.73 109.3 1147.63 109.3 1152.83 109.3C1152.83 135.1 1152.83 160.7 1152.83 186.4C1147.73 186.4 1142.93 186.4 1137.63 186.4C1137.63 183.7 1137.63 181 1137.63 177.6C1136.43 178.5 1135.73 178.9 1135.13 179.4C1112.33 197.6 1078.83 186.7 1071.33 158.5C1065.13 135.3 1080.93 111.7 1104.83 108.6C1115.43 107.2 1125.03 109.9 1133.73 116C1134.83 116.8 1135.83 117.9 1137.43 119.4ZM1111.33 174C1119.33 173.6 1127.13 170.1 1132.83 162.5C1138.73 154.6 1139.53 146 1134.53 137.4C1129.13 128.2 1120.83 123.3 1110.13 123.1C1096.03 122.9 1084.83 134.4 1084.83 148.6C1084.73 162.6 1096.03 173.9 1111.33 174Z" fill="black"/>
<path d="M1358.83 152.6C1337.63 152.6 1316.53 152.6 1295.33 152.6C1295.33 153.3 1295.23 153.8 1295.33 154.3C1297.93 163.8 1303.73 170.5 1313.43 172.9C1323.03 175.3 1331.53 172.9 1338.33 165.6C1339.23 164.6 1340.03 163.5 1340.63 162.3C1341.13 161.5 1341.73 161.1 1342.73 161.1C1347.63 161.1 1352.53 161.1 1357.43 161.1C1356.83 166.1 1350.33 175.1 1343.93 180C1335.23 186.6 1325.43 189.3 1314.63 188C1293.13 185.4 1276.73 165.9 1279.83 142.6C1282.83 120 1303.63 104.5 1325.73 108.2C1348.83 112.2 1361.23 133.8 1358.83 152.6ZM1343.23 140.6C1339.43 128.9 1328.83 121.4 1317.93 122.3C1307.33 123.2 1297.23 131.5 1295.93 140.6C1311.63 140.6 1327.23 140.6 1343.23 140.6Z" fill="black"/>
<path d="M1549.03 187C1543.53 187 1538.43 187 1533.03 187C1533.03 185.9 1532.93 184.9 1532.93 183.9C1532.93 172 1532.93 160.1 1532.93 148.1C1532.93 144.7 1532.43 141.4 1531.33 138.2C1528.73 131.2 1523.83 126.7 1516.63 124.9C1509.63 123.2 1502.83 123.6 1496.53 127.4C1489.63 131.5 1485.63 137.6 1485.03 145.7C1484.73 150.4 1484.83 155.1 1484.73 159.8C1484.73 167.8 1484.73 175.8 1484.73 183.7C1484.73 184.7 1484.73 185.8 1484.73 187C1479.23 187 1474.13 187 1468.73 187C1468.73 161.2 1468.73 135.5 1468.73 109.5C1471.33 109.1 1473.83 109.4 1476.43 109.3C1479.03 109.3 1481.63 109.3 1484.33 109.3C1485.33 112.3 1484.43 115.3 1484.73 118.3C1485.13 118.1 1485.43 118.1 1485.63 117.9C1490.33 112.3 1496.53 109.8 1503.43 108.9C1510.73 108 1518.03 108.7 1525.03 111.3C1538.83 116.4 1546.33 126.6 1548.53 140.8C1549.03 143.7 1549.13 146.7 1549.13 149.7C1549.23 161 1549.13 172.4 1549.13 183.7C1549.03 184.8 1549.03 185.8 1549.03 187Z" fill="black"/>
<path d="M1387.43 187C1387.43 166 1387.43 145.1 1387.43 124C1380.53 124 1373.83 124 1366.93 124C1366.93 119 1366.93 114.3 1366.93 109.4C1373.73 109.4 1380.43 109.4 1387.33 109.4C1387.33 98.9 1387.33 88.8001 1387.33 78.3001C1390.13 77.9001 1392.73 78.1 1395.23 78.1C1397.73 78.1 1400.23 78.1 1403.03 78.1C1403.33 88.5 1403.03 98.7 1403.23 109.2C1409.73 109.2 1416.03 109.2 1422.73 109.2C1422.83 114.1 1422.83 118.8 1422.73 123.8C1416.23 123.9 1409.83 123.9 1403.23 124C1403.23 145.1 1403.23 166 1403.23 187C1397.93 187 1392.93 187 1387.43 187Z" fill="black"/>
<path d="M1175.53 187C1175.53 161.1 1175.53 135.4 1175.53 109.5C1180.83 109.5 1186.03 109.5 1191.63 109.5C1191.73 111.5 1191.83 113.5 1192.03 116.1C1196.03 112.6 1200.13 110.1 1205.03 109.6C1208.63 109.2 1212.23 109 1215.83 108.8C1216.63 111.1 1216.83 118.7 1216.23 123C1214.03 123.3 1211.73 123.5 1209.53 123.8C1206.23 124.3 1203.13 125.3 1200.33 127.1C1194.83 130.6 1191.83 135.6 1191.83 142.2C1191.83 156 1191.83 169.9 1191.83 183.7C1191.83 184.8 1191.83 185.9 1191.83 187.1C1186.13 187 1180.93 187 1175.53 187Z" fill="black"/>
<path d="M1243.33 148.3C1252.43 161.2 1261.43 173.9 1270.73 187.1C1268.93 187.1 1267.73 187.1 1266.53 187.1C1263.23 187.1 1260.03 187 1256.73 187.1C1254.83 187.2 1253.73 186.6 1252.73 185C1246.03 175.4 1239.33 165.8 1232.53 156.2C1230.73 153.6 1228.93 151 1227.03 148.3C1227.43 147.6 1227.83 146.9 1228.23 146.3C1236.43 134.6 1244.63 122.8 1252.73 111C1253.73 109.6 1254.73 109 1256.43 109C1260.93 109.1 1265.43 109 1269.83 109C1269.93 109.2 1270.03 109.3 1270.03 109.4C1270.03 109.5 1270.13 109.6 1270.13 109.7C1270.03 109.9 1270.03 110.1 1269.93 110.2C1261.13 123 1252.33 135.6 1243.33 148.3Z" fill="black"/>
<path d="M1436.13 110.3C1441.23 110.3 1446.23 110.3 1451.43 110.3C1451.43 135.9 1451.43 161.3 1451.43 186.9C1446.33 186.9 1441.33 186.9 1436.33 186.9C1435.63 184.7 1435.53 113.7 1436.13 110.3Z" fill="black"/>
<path d="M1450.93 78.4001C1450.93 83.4001 1450.93 88.0001 1450.93 92.9001C1446.03 92.9001 1441.33 92.9001 1436.33 92.9001C1436.33 88.0001 1436.33 83.3001 1436.33 78.4001C1441.23 78.4001 1445.93 78.4001 1450.93 78.4001Z" fill="black"/>
</svg>
